solid Default
  facet normal -2.050796e-16 1.590142e-15 -1.000000e+00
    outer loop
      vertex -2.780354e+00 2.302197e+01 1.776357e-14
      vertex -2.516602e+00 2.407747e+01 1.865175e-14
      vertex 2.047803e-01 2.210100e+01 1.687539e-14
    endloop
  endfacet
  facet normal 5.876435e-01 8.091200e-01 4.317293e-16
    outer loop
      vertex -2.516602e+00 2.407747e+01 5.381415e+00
      vertex 2.047803e-01 2.210100e+01 1.687539e-14
      vertex -2.516602e+00 2.407747e+01 1.865175e-14
    endloop
  endfacet
  facet normal -2.050796e-16 1.590142e-15 -1.000000e+00
    outer loop
      vertex -3.044104e+00 2.196647e+01 1.776357e-14
      vertex -2.780354e+00 2.302197e+01 1.776357e-14
      vertex 2.047803e-01 2.210100e+01 1.687539e-14
    endloop
  endfacet
  facet normal -2.050796e-16 1.590142e-15 -1.000000e+00
    outer loop
      vertex 2.654023e+00 2.032217e+01 1.509903e-14
      vertex -3.044104e+00 2.196647e+01 1.776357e-14
      vertex 2.047803e-01 2.210100e+01 1.687539e-14
    endloop
  endfacet
  facet normal 5.876435e-01 8.091200e-01 4.317293e-16
    outer loop
      vertex 2.047803e-01 2.210100e+01 5.381415e+00
      vertex 2.654023e+00 2.032217e+01 1.509903e-14
      vertex 2.047803e-01 2.210100e+01 1.687539e-14
    endloop
  endfacet
  facet normal 5.876435e-01 8.091200e-01 4.317293e-16
    outer loop
      vertex -2.516602e+00 2.407747e+01 5.381415e+00
      vertex 2.047803e-01 2.210100e+01 5.381415e+00
      vertex 2.047803e-01 2.210100e+01 1.687539e-14
    endloop
  endfacet
  facet normal -9.701691e-01 2.424293e-01 3.825856e-16
    outer loop
      vertex -2.780354e+00 2.302197e+01 5.381415e+00
      vertex -2.516602e+00 2.407747e+01 1.865175e-14
      vertex -2.780354e+00 2.302197e+01 1.776357e-14
    endloop
  endfacet
  facet normal -9.701691e-01 2.424293e-01 3.825856e-16
    outer loop
      vertex -2.516602e+00 2.407747e+01 5.381415e+00
      vertex -2.516602e+00 2.407747e+01 1.865175e-14
      vertex -2.780354e+00 2.302197e+01 5.381415e+00
    endloop
  endfacet
  facet normal -9.701691e-01 2.424293e-01 3.825856e-16
    outer loop
      vertex -3.044104e+00 2.196647e+01 5.381415e+00
      vertex -2.780354e+00 2.302197e+01 1.776357e-14
      vertex -3.044104e+00 2.196647e+01 1.776357e-14
    endloop
  endfacet
  facet normal -9.701691e-01 2.424293e-01 3.825856e-16
    outer loop
      vertex -2.780354e+00 2.302197e+01 5.381415e+00
      vertex -2.780354e+00 2.302197e+01 1.776357e-14
      vertex -3.044104e+00 2.196647e+01 5.381415e+00
    endloop
  endfacet
  facet normal -2.050796e-16 1.590142e-15 -1.000000e+00
    outer loop
      vertex 1.029797e+01 1.477057e+01 1.065814e-14
      vertex 1.056280e+01 1.208412e+01 8.881784e-15
      vertex -3.044104e+00 2.196647e+01 1.776357e-14
    endloop
  endfacet
  facet normal -5.876435e-01 -8.091200e-01 -4.317293e-16
    outer loop
      vertex -3.044104e+00 2.196647e+01 5.381415e+00
      vertex -3.044104e+00 2.196647e+01 1.776357e-14
      vertex 1.056280e+01 1.208412e+01 8.881784e-15
    endloop
  endfacet
  facet normal -2.050796e-16 1.590142e-15 -1.000000e+00
    outer loop
      vertex 1.126943e+01 1.614344e+01 1.154632e-14
      vertex 1.029797e+01 1.477057e+01 1.065814e-14
      vertex -3.044104e+00 2.196647e+01 1.776357e-14
    endloop
  endfacet
  facet normal -2.050796e-16 1.590142e-15 -1.000000e+00
    outer loop
      vertex 2.654023e+00 2.032217e+01 1.509903e-14
      vertex 1.126943e+01 1.614344e+01 1.154632e-14
      vertex -3.044104e+00 2.196647e+01 1.776357e-14
    endloop
  endfacet
  facet normal -2.050796e-16 1.590142e-15 -1.000000e+00
    outer loop
      vertex 1.574073e+01 1.081762e+01 7.105427e-15
      vertex 1.328419e+01 1.010765e+01 7.105427e-15
      vertex 1.056280e+01 1.208412e+01 8.881784e-15
    endloop
  endfacet
  facet normal -5.876435e-01 -8.091200e-01 -4.317293e-16
    outer loop
      vertex 1.328419e+01 1.010765e+01 5.381415e+00
      vertex 1.056280e+01 1.208412e+01 8.881784e-15
      vertex 1.328419e+01 1.010765e+01 7.105427e-15
    endloop
  endfacet
  facet normal -2.050796e-16 1.590142e-15 -1.000000e+00
    outer loop
      vertex 1.029797e+01 1.477057e+01 1.065814e-14
      vertex 1.574073e+01 1.081762e+01 7.105427e-15
      vertex 1.056280e+01 1.208412e+01 8.881784e-15
    endloop
  endfacet
  facet normal -5.876435e-01 -8.091200e-01 -4.317293e-16
    outer loop
      vertex 1.056280e+01 1.208412e+01 5.381415e+00
      vertex 1.056280e+01 1.208412e+01 8.881784e-15
      vertex 1.328419e+01 1.010765e+01 5.381415e+00
    endloop
  endfacet
  facet normal -5.876435e-01 -8.091200e-01 -4.317293e-16
    outer loop
      vertex -3.044104e+00 2.196647e+01 5.381415e+00
      vertex 1.056280e+01 1.208412e+01 8.881784e-15
      vertex 1.056280e+01 1.208412e+01 5.381415e+00
    endloop
  endfacet
  facet normal 2.776506e-01 -9.606821e-01 -7.280811e-16
    outer loop
      vertex 1.574073e+01 1.081762e+01 5.381415e+00
      vertex 1.328419e+01 1.010765e+01 7.105427e-15
      vertex 1.574073e+01 1.081762e+01 7.105427e-15
    endloop
  endfacet
  facet normal 2.776506e-01 -9.606821e-01 -7.280811e-16
    outer loop
      vertex 1.328419e+01 1.010765e+01 5.381415e+00
      vertex 1.328419e+01 1.010765e+01 7.105427e-15
      vertex 1.574073e+01 1.081762e+01 5.381415e+00
    endloop
  endfacet
  facet normal 5.876435e-01 8.091200e-01 4.317293e-16
    outer loop
      vertex 1.574073e+01 1.081762e+01 5.381415e+00
      vertex 1.574073e+01 1.081762e+01 7.105427e-15
      vertex 1.029797e+01 1.477057e+01 1.065814e-14
    endloop
  endfacet
  facet normal 8.163013e-01 -5.776263e-01 -5.812293e-16
    outer loop
      vertex 1.126943e+01 1.614344e+01 5.381415e+00
      vertex 1.029797e+01 1.477057e+01 1.065814e-14
      vertex 1.126943e+01 1.614344e+01 1.154632e-14
    endloop
  endfacet
  facet normal 8.163013e-01 -5.776263e-01 -5.812293e-16
    outer loop
      vertex 1.029797e+01 1.477057e+01 5.381415e+00
      vertex 1.029797e+01 1.477057e+01 1.065814e-14
      vertex 1.126943e+01 1.614344e+01 5.381415e+00
    endloop
  endfacet
  facet normal 5.876435e-01 8.091200e-01 4.317293e-16
    outer loop
      vertex 1.574073e+01 1.081762e+01 5.381415e+00
      vertex 1.029797e+01 1.477057e+01 1.065814e-14
      vertex 1.029797e+01 1.477057e+01 5.381415e+00
    endloop
  endfacet
  facet normal -2.050796e-16 1.590142e-15 -1.000000e+00
    outer loop
      vertex 1.671219e+01 1.468460e+01 8.881784e-15
      vertex 1.671219e+01 1.219050e+01 7.993606e-15
      vertex 1.126943e+01 1.614344e+01 1.154632e-14
    endloop
  endfacet
  facet normal -5.876435e-01 -8.091200e-01 -4.317293e-16
    outer loop
      vertex 1.126943e+01 1.614344e+01 5.381415e+00
      vertex 1.126943e+01 1.614344e+01 1.154632e-14
      vertex 1.671219e+01 1.219050e+01 7.993606e-15
    endloop
  endfacet
  facet normal -2.050796e-16 1.590142e-15 -1.000000e+00
    outer loop
      vertex 2.654023e+00 2.032217e+01 1.509903e-14
      vertex 1.671219e+01 1.468460e+01 8.881784e-15
      vertex 1.126943e+01 1.614344e+01 1.154632e-14
    endloop
  endfacet
  facet normal 1.000000e+00 5.835497e-07 -2.209224e-16
    outer loop
      vertex 1.671219e+01 1.468460e+01 5.381415e+00
      vertex 1.671219e+01 1.219050e+01 7.993606e-15
      vertex 1.671219e+01 1.468460e+01 8.881784e-15
    endloop
  endfacet
  facet normal 1.000000e+00 5.835497e-07 -2.209224e-16
    outer loop
      vertex 1.671219e+01 1.219050e+01 5.381415e+00
      vertex 1.671219e+01 1.219050e+01 7.993606e-15
      vertex 1.671219e+01 1.468460e+01 5.381415e+00
    endloop
  endfacet
  facet normal -5.876435e-01 -8.091200e-01 -4.317293e-16
    outer loop
      vertex 1.126943e+01 1.614344e+01 5.381415e+00
      vertex 1.671219e+01 1.219050e+01 7.993606e-15
      vertex 1.671219e+01 1.219050e+01 5.381415e+00
    endloop
  endfacet
  facet normal -2.050796e-16 1.590142e-15 -1.000000e+00
    outer loop
      vertex 1.193016e+00 2.346169e+01 1.776357e-14
      vertex 1.200319e+00 2.595049e+01 1.953993e-14
      vertex 1.671219e+01 1.468460e+01 8.881784e-15
    endloop
  endfacet
  facet normal 5.876435e-01 8.091200e-01 4.317293e-16
    outer loop
      vertex 1.671219e+01 1.468460e+01 5.381415e+00
      vertex 1.671219e+01 1.468460e+01 8.881784e-15
      vertex 1.200319e+00 2.595049e+01 1.953993e-14
    endloop
  endfacet
  facet normal -2.050796e-16 1.590142e-15 -1.000000e+00
    outer loop
      vertex 3.642258e+00 2.168286e+01 1.598721e-14
      vertex 1.193016e+00 2.346169e+01 1.776357e-14
      vertex 1.671219e+01 1.468460e+01 8.881784e-15
    endloop
  endfacet
  facet normal -2.050796e-16 1.590142e-15 -1.000000e+00
    outer loop
      vertex 2.654023e+00 2.032217e+01 1.509903e-14
      vertex 3.642258e+00 2.168286e+01 1.598721e-14
      vertex 1.671219e+01 1.468460e+01 8.881784e-15
    endloop
  endfacet
  facet normal -2.050796e-16 1.590142e-15 -1.000000e+00
    outer loop
      vertex 1.193016e+00 2.346169e+01 1.776357e-14
      vertex -1.256229e+00 2.524051e+01 1.953993e-14
      vertex 1.200319e+00 2.595049e+01 1.953993e-14
    endloop
  endfacet
  facet normal -2.776506e-01 9.606821e-01 7.280811e-16
    outer loop
      vertex -1.256229e+00 2.524051e+01 5.381415e+00
      vertex 1.200319e+00 2.595049e+01 1.953993e-14
      vertex -1.256229e+00 2.524051e+01 1.953993e-14
    endloop
  endfacet
  facet normal -2.776506e-01 9.606821e-01 7.280811e-16
    outer loop
      vertex 1.200319e+00 2.595049e+01 5.381415e+00
      vertex 1.200319e+00 2.595049e+01 1.953993e-14
      vertex -1.256229e+00 2.524051e+01 5.381415e+00
    endloop
  endfacet
  facet normal 5.876435e-01 8.091200e-01 4.317293e-16
    outer loop
      vertex 1.671219e+01 1.468460e+01 5.381415e+00
      vertex 1.200319e+00 2.595049e+01 1.953993e-14
      vertex 1.200319e+00 2.595049e+01 5.381415e+00
    endloop
  endfacet
  facet normal -5.876435e-01 -8.091200e-01 -4.317293e-16
    outer loop
      vertex 1.193016e+00 2.346169e+01 5.381415e+00
      vertex -1.256229e+00 2.524051e+01 1.953993e-14
      vertex 1.193016e+00 2.346169e+01 1.776357e-14
    endloop
  endfacet
  facet normal -5.876435e-01 -8.091200e-01 -4.317293e-16
    outer loop
      vertex -1.256229e+00 2.524051e+01 5.381415e+00
      vertex -1.256229e+00 2.524051e+01 1.953993e-14
      vertex 1.193016e+00 2.346169e+01 5.381415e+00
    endloop
  endfacet
  facet normal -5.876435e-01 -8.091200e-01 -4.317293e-16
    outer loop
      vertex 3.642258e+00 2.168286e+01 5.381415e+00
      vertex 1.193016e+00 2.346169e+01 1.776357e-14
      vertex 3.642258e+00 2.168286e+01 1.598721e-14
    endloop
  endfacet
  facet normal -5.876435e-01 -8.091200e-01 -4.317293e-16
    outer loop
      vertex 1.193016e+00 2.346169e+01 5.381415e+00
      vertex 1.193016e+00 2.346169e+01 1.776357e-14
      vertex 3.642258e+00 2.168286e+01 5.381415e+00
    endloop
  endfacet
  facet normal -8.091200e-01 5.876435e-01 5.865950e-16
    outer loop
      vertex 2.654023e+00 2.032217e+01 5.381415e+00
      vertex 3.642258e+00 2.168286e+01 1.598721e-14
      vertex 2.654023e+00 2.032217e+01 1.509903e-14
    endloop
  endfacet
  facet normal -8.091200e-01 5.876435e-01 5.865950e-16
    outer loop
      vertex 3.642258e+00 2.168286e+01 5.381415e+00
      vertex 3.642258e+00 2.168286e+01 1.598721e-14
      vertex 2.654023e+00 2.032217e+01 5.381415e+00
    endloop
  endfacet
  facet normal 5.876435e-01 8.091200e-01 4.317293e-16
    outer loop
      vertex 2.654023e+00 2.032217e+01 5.381415e+00
      vertex 2.654023e+00 2.032217e+01 1.509903e-14
      vertex 2.047803e-01 2.210100e+01 5.381415e+00
    endloop
  endfacet
  facet normal 2.050796e-16 -1.590142e-15 1.000000e+00
    outer loop
      vertex 1.056280e+01 1.208412e+01 5.381415e+00
      vertex 2.654023e+00 2.032217e+01 5.381415e+00
      vertex 2.047803e-01 2.210100e+01 5.381415e+00
    endloop
  endfacet
  facet normal 2.050796e-16 -1.590142e-15 1.000000e+00
    outer loop
      vertex -3.044104e+00 2.196647e+01 5.381415e+00
      vertex 1.056280e+01 1.208412e+01 5.381415e+00
      vertex 2.047803e-01 2.210100e+01 5.381415e+00
    endloop
  endfacet
  facet normal 2.050796e-16 -1.590142e-15 1.000000e+00
    outer loop
      vertex -2.780354e+00 2.302197e+01 5.381415e+00
      vertex -3.044104e+00 2.196647e+01 5.381415e+00
      vertex 2.047803e-01 2.210100e+01 5.381415e+00
    endloop
  endfacet
  facet normal 2.050796e-16 -1.590142e-15 1.000000e+00
    outer loop
      vertex -2.516602e+00 2.407747e+01 5.381415e+00
      vertex -2.780354e+00 2.302197e+01 5.381415e+00
      vertex 2.047803e-01 2.210100e+01 5.381415e+00
    endloop
  endfacet
  facet normal 2.050796e-16 -1.590142e-15 1.000000e+00
    outer loop
      vertex 1.056280e+01 1.208412e+01 5.381415e+00
      vertex 3.642258e+00 2.168286e+01 5.381415e+00
      vertex 2.654023e+00 2.032217e+01 5.381415e+00
    endloop
  endfacet
  facet normal 2.050796e-16 -1.590142e-15 1.000000e+00
    outer loop
      vertex 1.200319e+00 2.595049e+01 5.381415e+00
      vertex 1.193016e+00 2.346169e+01 5.381415e+00
      vertex 3.642258e+00 2.168286e+01 5.381415e+00
    endloop
  endfacet
  facet normal 2.050796e-16 -1.590142e-15 1.000000e+00
    outer loop
      vertex 1.126943e+01 1.614344e+01 5.381415e+00
      vertex 1.200319e+00 2.595049e+01 5.381415e+00
      vertex 3.642258e+00 2.168286e+01 5.381415e+00
    endloop
  endfacet
  facet normal 2.050796e-16 -1.590142e-15 1.000000e+00
    outer loop
      vertex 1.029797e+01 1.477057e+01 5.381415e+00
      vertex 1.126943e+01 1.614344e+01 5.381415e+00
      vertex 3.642258e+00 2.168286e+01 5.381415e+00
    endloop
  endfacet
  facet normal 2.050796e-16 -1.590142e-15 1.000000e+00
    outer loop
      vertex 1.056280e+01 1.208412e+01 5.381415e+00
      vertex 1.029797e+01 1.477057e+01 5.381415e+00
      vertex 3.642258e+00 2.168286e+01 5.381415e+00
    endloop
  endfacet
  facet normal 2.050796e-16 -1.590142e-15 1.000000e+00
    outer loop
      vertex 1.200319e+00 2.595049e+01 5.381415e+00
      vertex -1.256229e+00 2.524051e+01 5.381415e+00
      vertex 1.193016e+00 2.346169e+01 5.381415e+00
    endloop
  endfacet
  facet normal 2.050796e-16 -1.590142e-15 1.000000e+00
    outer loop
      vertex 1.126943e+01 1.614344e+01 5.381415e+00
      vertex 1.671219e+01 1.468460e+01 5.381415e+00
      vertex 1.200319e+00 2.595049e+01 5.381415e+00
    endloop
  endfacet
  facet normal 2.050796e-16 -1.590142e-15 1.000000e+00
    outer loop
      vertex 1.126943e+01 1.614344e+01 5.381415e+00
      vertex 1.671219e+01 1.219050e+01 5.381415e+00
      vertex 1.671219e+01 1.468460e+01 5.381415e+00
    endloop
  endfacet
  facet normal 2.050796e-16 -1.590142e-15 1.000000e+00
    outer loop
      vertex 1.328419e+01 1.010765e+01 5.381415e+00
      vertex 1.574073e+01 1.081762e+01 5.381415e+00
      vertex 1.029797e+01 1.477057e+01 5.381415e+00
    endloop
  endfacet
  facet normal 2.050796e-16 -1.590142e-15 1.000000e+00
    outer loop
      vertex 1.056280e+01 1.208412e+01 5.381415e+00
      vertex 1.328419e+01 1.010765e+01 5.381415e+00
      vertex 1.029797e+01 1.477057e+01 5.381415e+00
    endloop
  endfacet
endsolid Default
